<?xml version="1.0" encoding="UTF-8"?>
<svg id="source--logo" width="109px" height="26px" viewBox="0 0 109 26" version="1.1" xmlns="http://www.w3.org/2000/svg" xmlns:xlink="http://www.w3.org/1999/xlink">
    <title>Logo</title>
    <defs>
        <filter id="filter-1">
            <feColorMatrix in="SourceGraphic" type="matrix" values="0 0 0 0 1.000000 0 0 0 0 1.000000 0 0 0 0 1.000000 0 0 0 1.000000 0"></feColorMatrix>
        </filter>
    </defs>
    <g id="Page-1" stroke="none" stroke-width="1" fill="none" fill-rule="evenodd">
        <g id="Logo" transform="translate(-50.000000, -49.000000)" filter="url(#filter-1)">
            <g transform="translate(50.000000, 49.000000)">
                <path d="M9.12886598,8.94764795 L9.07216495,8.94764795 C8.10824742,7.73368741 6.67182131,7.01289833 5.25429553,7.01289833 C0.41580756,7.01289833 0,12.8171472 0,16.4400607 C0,20.0629742 0.321305842,26 5.17869416,26 C6.89862543,26 8.3161512,25.3171472 9.0532646,23.8376328 L9.10996564,23.8376328 L9.10996564,25.5447648 L11,25.5447648 L11,1 L9.10996564,1 L9.10996564,8.94764795 L9.12886598,8.94764795 Z M5.61340206,24.3308042 C2.06013746,24.3308042 1.89003436,19.3611533 1.89003436,16.8004552 C1.89003436,14.353566 1.92783505,8.68209408 5.5,8.68209408 C8.95876289,8.68209408 9.12886598,13.2723824 9.12886598,15.7192716 C9.12886598,18.2040971 9.45017182,24.3308042 5.61340206,24.3308042 Z" id="Shape" fill="#000000" fill-rule="nonzero"></path>
                <path d="M19.5,7 C14.2408759,7 14,12.9220779 14,16.5664336 C14,20.3056943 14.2408759,26 19.580292,26 C23.4945255,26 24.919708,22.963037 24.919708,19.6413586 L22.9726277,19.6413586 C22.7919708,21.8051948 22.4507299,24.3296703 19.620438,24.3296703 C15.6660584,24.3296703 16.0273723,18.7302697 16.0273723,16.4145854 L25,16.4145854 L25,14.5734266 C24.979927,11.1378621 23.9361314,7 19.5,7 Z M16.0072993,14.7442557 C16.0072993,12.6183816 16.3485401,8.68931069 19.479927,8.68931069 C22.7317518,8.68931069 22.9726277,12.4475524 22.9726277,14.7442557 L16.0072993,14.7442557 Z" id="Shape" fill="#000000" fill-rule="nonzero"></path>
                <rect id="Rectangle" fill="#000000" fill-rule="nonzero" x="28" y="1" width="2" height="25"></rect>
                <polygon id="Path" fill="#000000" fill-rule="nonzero" points="34 4 34.5469613 4 37 4 37 0 34 0"></polygon>
                <polygon id="Path" fill="#000000" fill-rule="nonzero" points="34 26 34.6 26 36.4181818 26 37 26 37 6 34 6"></polygon>
                <path d="M47.3789127,6 C46.0560132,6 44.8962109,6.51823417 43.9901153,7.3243762 L43.9901153,7.07485605 L43.9901153,6.46065259 L41,6.46065259 L41,25.9808061 L43.9901153,25.9808061 L43.9901153,25.3666027 L43.9901153,11.8925144 C43.9901153,11.0671785 44.3525535,10.3378119 44.9324547,9.80038388 C45.5123558,9.26295585 46.3097199,8.93666027 47.0527183,8.93666027 C47.5782537,8.93666027 47.9406919,9.03262956 48.1762768,9.16698656 C48.5205931,9.35892514 48.7018122,9.64683301 48.8467875,10.1458733 C48.9736409,10.6449136 49.0098847,11.3358925 49.0098847,12.1036468 L49.0098847,26 L52,26 L52,10.8752399 C52,9.39731286 51.4744646,8.14971209 50.6227348,7.30518234 C49.7891269,6.46065259 48.6293245,6 47.3789127,6 Z" id="Path" fill="#000000" fill-rule="nonzero"></path>
                <path d="M59.7435897,0 C58.9717949,0 58.3435897,0.0764705882 57.7871795,0.286764706 C56.9615385,0.592647059 56.3871795,1.26176471 56.1358974,2.10294118 C55.8666667,2.94411765 55.8128205,3.93823529 55.8128205,5.18088235 L55.8128205,6.53823529 L54.574359,6.53823529 L54,6.53823529 L54,9.46323529 L55.8307692,9.46323529 L55.8307692,26 L58.7923077,26 L58.7923077,9.46323529 L60.3538462,9.46323529 L60.9282051,9.46323529 L60.9282051,6.55735294 L58.7923077,6.55735294 L58.7923077,5.10441176 C58.7923077,4.77941176 58.7923077,4.49264706 58.7923077,4.225 C58.7923077,3.9 58.8102564,3.63235294 58.8282051,3.46029412 C58.8820513,3.19264706 58.9179487,3.17352941 59.0076923,3.09705882 C59.1153846,3.02058824 59.4384615,2.925 60.0307692,2.94411765 L60.3897436,2.94411765 L61,2.96323529 L61,0.0573529412 L60.4435897,0.0191176471 C60.174359,0 59.9589744,0 59.7435897,0 Z" id="Path" fill="#000000" fill-rule="nonzero"></path>
                <polygon id="Path" fill="#000000" fill-rule="nonzero" points="63 26 63.6 26 65.4181818 26 66 26 66 6 63 6"></polygon>
                <polygon id="Path" fill="#000000" fill-rule="nonzero" points="63 4 63.5469613 4 66 4 66 0 63 0"></polygon>
                <path d="M75.3789127,6 C74.0560132,6 72.8962109,6.51823417 71.9901153,7.3243762 L71.9901153,7.07485605 L71.9901153,6.46065259 L69,6.46065259 L69,25.9808061 L71.9901153,25.9808061 L71.9901153,25.3666027 L71.9901153,11.8925144 C71.9901153,11.0671785 72.3525535,10.3378119 72.9324547,9.80038388 C73.5123558,9.26295585 74.3097199,8.93666027 75.0527183,8.93666027 C75.5782537,8.93666027 75.9406919,9.03262956 76.1762768,9.16698656 C76.5205931,9.35892514 76.7018122,9.64683301 76.8467875,10.1458733 C76.9736409,10.6449136 77.0098847,11.3358925 77.0098847,12.1036468 L77.0098847,26 L80,26 L80,10.8752399 C80,9.39731286 79.4744646,8.14971209 78.6227348,7.30518234 C77.7891269,6.46065259 76.6293245,6 75.3789127,6 Z" id="Path" fill="#000000" fill-rule="nonzero"></path>
                <polygon id="Path" fill="#000000" fill-rule="nonzero" points="84 26 84.5853659 26 86.4146341 26 87 26 87 6 84 6"></polygon>
                <polygon id="Path" fill="#000000" fill-rule="nonzero" points="84 4 84.5333333 4 87 4 87 0 84 0"></polygon>
                <path d="M93.5636364,1 L90.5636364,1 L90.5636364,6.31914894 L89.5818182,6.31914894 L89,6.31914894 L89,9.22568389 L90.5636364,9.22568389 L90.5636364,22.143617 C90.5636364,23.0364742 90.6181818,23.7963526 90.9818182,24.4612462 C91.3454545,25.1261398 91.9818182,25.5630699 92.8363636,25.8860182 L92.8545455,25.8860182 L92.8727273,25.8860182 C93.1636364,25.981003 93.4363636,26 93.7272727,26 C94.3636364,26 95.0545455,25.8860182 95.4727273,25.8100304 L95.9818182,25.7340426 L95.9818182,25.2021277 L95.9818182,23.6253799 L95.9818182,22.8275076 L95.2363636,23.0364742 C94.9818182,23.112462 94.7090909,23.1694529 94.4909091,23.1504559 C94.3272727,23.1504559 94.2,23.131459 94.1090909,23.093465 L94.0545455,23.0744681 L94,23.0744681 C93.7818182,23.0174772 93.7636364,22.9604863 93.6727273,22.7705167 C93.6,22.5805471 93.5818182,22.2575988 93.5818182,21.9726444 L93.5818182,9.24468085 L95.4181818,9.24468085 L96,9.24468085 L96,6.30015198 L93.5818182,6.30015198 L93.5818182,1 L93.5636364,1 Z" id="Path" fill="#000000" fill-rule="nonzero"></path>
                <path d="M108.108056,9.57142857 C107.710047,8.57518797 107.131126,7.67293233 106.298926,7.03383459 C105.466726,6.37593985 104.381249,6 103.060584,6 C101.776102,6 100.708716,6.33834586 99.876516,6.93984962 C98.6101253,7.84210526 97.9045648,9.27067669 97.5065563,10.8120301 C97.1085478,12.3533835 97.0180913,14.0451128 97,15.5864662 C97,17.6729323 97.0180913,20.1729323 97.7598344,22.2593985 C98.1216603,23.2932331 98.6824905,24.2518797 99.5508727,24.9285714 C100.419255,25.6240602 101.540915,26 102.952036,26 C104.290792,26 105.394361,25.6240602 106.244652,24.9661654 C107.529134,23.9887218 108.198512,22.4473684 108.560338,20.8308271 C108.922164,19.2142857 108.994529,17.4473684 108.994529,15.906015 C109.030712,13.9511278 108.904073,11.5639098 108.108056,9.57142857 Z M102.843489,8.87593985 C103.639506,8.87593985 104.182244,9.12030075 104.598344,9.53383459 C105.23154,10.1353383 105.629548,11.2067669 105.828552,12.4285714 C106.027557,13.6315789 106.045648,14.9473684 106.027557,16 C106.027557,17.3345865 106.009465,19.2330827 105.575274,20.7368421 C105.358179,21.4699248 105.050627,22.1090226 104.634527,22.5225564 C104.218427,22.9360902 103.711871,23.1804511 102.933945,23.1804511 C102.210293,23.1804511 101.739919,22.9548872 101.360002,22.5977444 C100.781081,22.0526316 100.401164,21.056391 100.220251,19.9097744 C100.021246,18.7631579 100.003155,17.5037594 100.003155,16.4511278 C100.003155,16.1691729 100.003155,15.906015 100.003155,15.6616541 C100.003155,14.4398496 100.057429,12.6541353 100.473529,11.2443609 C100.690624,10.5300752 100.980085,9.92857143 101.360002,9.53383459 C101.739919,9.10150376 102.174111,8.87593985 102.843489,8.87593985 Z" id="Shape" fill="#000000" fill-rule="nonzero"></path>
            </g>
        </g>
    </g>
</svg>