<svg xmlns="http://www.w3.org/2000/svg" viewBox="0 0 1090.45 196.23"><g id="Capa_2" data-name="Capa 2"><g id="Capa_1-2" data-name="Capa 1"><path d="M185.09,70.83,92.55,0,0,70.83,35.65,98.11,0,125.4l92.55,70.83,92.54-70.83L149.44,98.11Zm-174.48,0L92.55,8.12l81.92,62.71L144.13,94.05,92.55,54.57,41,94.05Zm115.7,36.87L92.55,81.85,58.78,107.69,46.26,98.11,92.55,62.69l46.28,35.42ZM121,111.76,92.55,133.54,64.09,111.75,92.55,90Zm53.47,13.64L92.55,188.11,10.61,125.4,41,102.17l51.59,39.49,51.58-39.49Z"/><path d="M229,98.92V36.24H270.1v7H236.83V63.4h32.61v7H236.83V98.92Z"/><path d="M277.9,76.18c0-13.15,8.65-23.77,22.46-23.77S322.82,63,322.82,76.18s-8.64,23.87-22.46,23.87S277.9,89.34,277.9,76.18Zm37.5,0c0-9.21-5.36-17.48-15-17.48s-15,8.27-15,17.48,5.35,17.57,15,17.57S315.4,85.48,315.4,76.18Z"/><path d="M365,98.92V69.23c0-8.08-4.14-10.53-10.25-10.53-5.54,0-10.71,3.39-13.44,7V98.92h-7V53.53h7v6.58a22.23,22.23,0,0,1,16.26-7.7C367,52.41,372,57.2,372,67.07V98.92Z"/><path d="M419.07,98.92V92.16a19.12,19.12,0,0,1-15.32,7.89c-11.84,0-20.2-9-20.2-23.77,0-14.57,8.36-23.87,20.2-23.87a19,19,0,0,1,15.32,8V36.24h7.05V98.92Zm0-12.4V66a16.88,16.88,0,0,0-13.53-7.33c-9.21,0-14.66,7.52-14.66,17.58s5.45,17.47,14.66,17.47C411.08,93.75,416.63,90.47,419.07,86.52Z"/><path d="M437.59,76.18c0-13.15,8.65-23.77,22.46-23.77S482.51,63,482.51,76.18s-8.64,23.87-22.46,23.87S437.59,89.34,437.59,76.18Zm37.5,0c0-9.21-5.36-17.48-15-17.48S445,67,445,76.18s5.35,17.57,15,17.57S475.09,85.48,475.09,76.18Z"/><path d="M572.17,98.92V46.2L550.94,98.92h-3.2L526.41,46.2V98.92h-7.8V36.24h11.18l19.55,48.3,19.45-48.3H580V98.92Z"/><path d="M591.74,76.18c0-13.15,9.4-23.77,22.36-23.77,13.72,0,21.81,10.71,21.81,24.34v1.78H599.25c.57,8.55,6.49,15.69,16.26,15.69a19.77,19.77,0,0,0,14.1-5.82L633,93a25,25,0,0,1-18,7C601.42,100.05,591.74,90.37,591.74,76.18Zm22.27-18c-9.68,0-14.47,8.18-14.85,15H629C628.86,66.6,624.35,58.23,614,58.23Z"/><path d="M648.69,89.43V59.74h-7.51V53.53h7.51V41.13h7.14v12.4h9.22v6.21h-9.22V87.93c0,3.38,1.51,5.82,4.52,5.82a6.69,6.69,0,0,0,4.79-2l2.07,5.36c-1.79,1.69-4.33,2.91-8.37,2.91C652.08,100.05,648.69,96.2,648.69,89.43Z"/><path d="M674.92,98.92V53.53h7v7.24c3.67-4.7,8.93-8.27,15.14-8.27v7.24a22.21,22.21,0,0,0-2.73-.19C690,59.55,684,63.12,682,66.78V98.92Z"/><path d="M703.3,76.18c0-13.15,8.65-23.77,22.46-23.77S748.22,63,748.22,76.18s-8.64,23.87-22.46,23.87S703.3,89.34,703.3,76.18Zm37.5,0c0-9.21-5.36-17.48-15-17.48s-15,8.27-15,17.48,5.35,17.57,15,17.57S740.8,85.48,740.8,76.18Z"/><path d="M766.74,92.06v24.15h-7V53.53h7V60.3a19,19,0,0,1,15.32-7.89c11.94,0,20.21,9,20.21,23.77s-8.27,23.87-20.21,23.87A19,19,0,0,1,766.74,92.06Zm28.1-15.88c0-10.05-5.45-17.48-14.56-17.48a16.79,16.79,0,0,0-13.54,7.24V86.42a16.87,16.87,0,0,0,13.54,7.33C789.39,93.75,794.84,86.24,794.84,76.18Z"/><path d="M810.83,76.18c0-13.15,8.64-23.77,22.45-23.77S855.74,63,855.74,76.18s-8.64,23.87-22.46,23.87S810.83,89.34,810.83,76.18Zm37.49,0c0-9.21-5.36-17.48-15-17.48s-15,8.27-15,17.48,5.36,17.57,15,17.57S848.32,85.48,848.32,76.18Z"/><path d="M867.22,89.43V36.24h7V87.93c0,3.38,1.5,5.82,4.6,5.82a6.45,6.45,0,0,0,4.7-2l2.16,5.36c-1.88,1.69-4.32,2.91-8.46,2.91C870.6,100.05,867.22,96.2,867.22,89.43Z"/><path d="M891.28,42.35a4.81,4.81,0,0,1,4.79-4.79,4.73,4.73,0,0,1,4.7,4.79,4.65,4.65,0,0,1-4.7,4.7A4.73,4.73,0,0,1,891.28,42.35Zm1.22,56.57V53.53h7V98.92Z"/><path d="M915.06,89.43V59.74h-7.52V53.53h7.52V41.13h7.14v12.4h9.21v6.21H922.2V87.93c0,3.38,1.51,5.82,4.51,5.82a6.7,6.7,0,0,0,4.8-2l2.06,5.36c-1.78,1.69-4.32,2.91-8.36,2.91C918.44,100.05,915.06,96.2,915.06,89.43Z"/><path d="M974.17,98.92V92.16a19.1,19.1,0,0,1-15.31,7.89c-11.84,0-20.21-9-20.21-23.77,0-14.57,8.37-23.87,20.21-23.87a19,19,0,0,1,15.31,8V53.53h7.05V98.92Zm0-12.4V66a16.86,16.86,0,0,0-13.53-7.33c-9.21,0-14.66,7.52-14.66,17.58s5.45,17.47,14.66,17.47C966.19,93.75,971.73,90.47,974.17,86.52Z"/><path d="M1026.06,98.92V69.23c0-8.08-4.14-10.53-10.25-10.53-5.54,0-10.71,3.39-13.44,7V98.92h-7V53.53h7v6.58a22.23,22.23,0,0,1,16.26-7.7c9.4,0,14.38,4.79,14.38,14.66V98.92Z"/><path d="M1044.58,76.18c0-13.15,8.65-23.77,22.46-23.77S1089.5,63,1089.5,76.18s-8.65,23.87-22.46,23.87S1044.58,89.34,1044.58,76.18Zm37.49,0c0-9.21-5.35-17.48-15-17.48s-15,8.27-15,17.48,5.36,17.57,15,17.57S1082.07,85.48,1082.07,76.18Z"/><path d="M244.1,161.25v-3.8a10.73,10.73,0,0,1-8.59,4.43c-6.64,0-11.33-5.06-11.33-13.34s4.69-13.38,11.33-13.38a10.66,10.66,0,0,1,8.59,4.47V126.09h4v35.16Zm0-7V142.8a9.45,9.45,0,0,0-7.59-4.12c-5.17,0-8.22,4.22-8.22,9.86s3.05,9.81,8.22,9.81A9.42,9.42,0,0,0,244.1,154.29Z"/><path d="M254.49,148.49c0-7.38,5.27-13.33,12.54-13.33,7.7,0,12.23,6,12.23,13.65v1H258.7c.32,4.8,3.64,8.8,9.12,8.8a11.09,11.09,0,0,0,7.91-3.27l1.9,2.58a14,14,0,0,1-10.12,4C259.92,161.88,254.49,156.45,254.49,148.49ZM267,138.42c-5.43,0-8.12,4.59-8.33,8.43h16.71C275.31,143.11,272.78,138.42,267,138.42Z"/><path d="M299.29,155.92V126.09h4v29c0,1.89.84,3.27,2.58,3.27a3.59,3.59,0,0,0,2.63-1.11l1.22,3a6.56,6.56,0,0,1-4.74,1.64C301.19,161.88,299.29,159.72,299.29,155.92Z"/><path d="M331.92,161.25v-3.8a10.71,10.71,0,0,1-8.59,4.43c-6.64,0-11.33-5.06-11.33-13.34s4.69-13.38,11.33-13.38a10.63,10.63,0,0,1,8.59,4.47v-3.84h4v25.46Zm0-7V142.8a9.45,9.45,0,0,0-7.59-4.12c-5.16,0-8.22,4.22-8.22,9.86s3.06,9.81,8.22,9.81A9.42,9.42,0,0,0,331.92,154.29Z"/><path d="M356.17,143.69c0-10.8,8-18.18,18.08-18.18a15.6,15.6,0,0,1,13.34,7L384,134.52a11.82,11.82,0,0,0-9.7-5.11c-7.69,0-13.54,5.85-13.54,14.28S366.56,158,374.25,158a12,12,0,0,0,9.7-5.11l3.69,2a15.82,15.82,0,0,1-13.39,7C364.13,161.88,356.17,154.5,356.17,143.69Z"/><path d="M410.26,161.25v-3.59a12.47,12.47,0,0,1-9.07,4.22c-5.32,0-8.11-2.64-8.11-8.12v-18H397v16.76c0,4.48,2.27,5.8,5.75,5.8a9.75,9.75,0,0,0,7.48-3.85V135.79h3.95v25.46Z"/><path d="M422.12,155.92V126.09h4v29c0,1.89.84,3.27,2.58,3.27a3.6,3.6,0,0,0,2.63-1.11l1.22,3a6.57,6.57,0,0,1-4.75,1.64C424,161.88,422.12,159.72,422.12,155.92Z"/><path d="M437.09,155.92V139.26h-4.21v-3.47h4.21v-7h4v7h5.17v3.47H441.1v15.82c0,1.89.84,3.27,2.53,3.27a3.75,3.75,0,0,0,2.69-1.11l1.16,3a6.41,6.41,0,0,1-4.69,1.64C439,161.88,437.09,159.72,437.09,155.92Z"/><path d="M469,161.25v-3.59a12.51,12.51,0,0,1-9.07,4.22c-5.33,0-8.12-2.64-8.12-8.12v-18h3.95v16.76c0,4.48,2.27,5.8,5.75,5.8A9.75,9.75,0,0,0,469,154.5V135.79h3.95v25.46Z"/><path d="M480.85,161.25V135.79h3.95v4.05a11,11,0,0,1,8.49-4.63v4a13.87,13.87,0,0,0-1.53-.1,9.31,9.31,0,0,0-7,4.06v18Z"/><path d="M516.69,161.25v-3.8a10.73,10.73,0,0,1-8.59,4.43c-6.64,0-11.33-5.06-11.33-13.34s4.69-13.38,11.33-13.38a10.63,10.63,0,0,1,8.59,4.47v-3.84h3.95v25.46Zm0-7V142.8a9.45,9.45,0,0,0-7.59-4.12c-5.16,0-8.22,4.22-8.22,9.86s3.06,9.81,8.22,9.81A9.42,9.42,0,0,0,516.69,154.29Z"/><path d="M529.61,167.94l-2-1.64a7.83,7.83,0,0,0,3.43-4.9,2.17,2.17,0,0,1-.74.11,2.57,2.57,0,0,1-2.53-2.69,2.83,2.83,0,0,1,2.8-2.85c1.79,0,3.32,1.48,3.32,4A10.13,10.13,0,0,1,529.61,167.94Z"/><path d="M554.33,155.92V126.09h4v29c0,1.89.84,3.27,2.58,3.27a3.6,3.6,0,0,0,2.63-1.11l1.22,3a6.57,6.57,0,0,1-4.75,1.64C556.23,161.88,554.33,159.72,554.33,155.92Z"/><path d="M587,161.25v-3.8a10.73,10.73,0,0,1-8.59,4.43c-6.64,0-11.33-5.06-11.33-13.34s4.69-13.38,11.33-13.38a10.64,10.64,0,0,1,8.59,4.47v-3.84h3.95v25.46Zm0-7V142.8a9.45,9.45,0,0,0-7.59-4.12c-5.16,0-8.22,4.22-8.22,9.86s3.06,9.81,8.22,9.81A9.42,9.42,0,0,0,587,154.29Z"/><path d="M596.66,157.87l2-2.84a11.55,11.55,0,0,0,8.38,3.63c3.9,0,6.06-1.84,6.06-4.37,0-6.17-15.76-2.37-15.76-11.81,0-4,3.37-7.32,9.43-7.32a12.72,12.72,0,0,1,9.44,3.68l-1.84,2.74a9.87,9.87,0,0,0-7.6-3.21c-3.47,0-5.64,1.74-5.64,4,0,5.53,15.76,1.89,15.76,11.8,0,4.27-3.42,7.7-10,7.7A13.68,13.68,0,0,1,596.66,157.87Z"/><path d="M662.24,161.25l-3.11-7.86h-17.5l-3.11,7.86h-5l14.18-35.16h5.43l14.13,35.16Zm-11.86-30.68-7.43,19h14.91Z"/><path d="M671.68,161.25V135.79h4v4.05a11,11,0,0,1,8.49-4.63v4a13.87,13.87,0,0,0-1.53-.1,9.31,9.31,0,0,0-7,4.06v18Z"/><path d="M689.86,155.92V139.26h-4.21v-3.47h4.21v-7h4v7H699v3.47h-5.16v15.82c0,1.89.84,3.27,2.53,3.27a3.75,3.75,0,0,0,2.69-1.11l1.16,3a6.43,6.43,0,0,1-4.69,1.64C691.76,161.88,689.86,159.72,689.86,155.92Z"/><path d="M703.09,148.49c0-7.38,5.28-13.33,12.55-13.33,7.7,0,12.23,6,12.23,13.65v1H707.31c.32,4.8,3.64,8.8,9.12,8.8a11.09,11.09,0,0,0,7.91-3.27l1.9,2.58a14,14,0,0,1-10.12,4C708.53,161.88,703.09,156.45,703.09,148.49Zm12.5-10.07c-5.43,0-8.12,4.59-8.33,8.43H724C723.92,143.11,721.38,138.42,715.59,138.42Z"/><path d="M732.09,157.87l2-2.84a11.57,11.57,0,0,0,8.38,3.63c3.9,0,6.06-1.84,6.06-4.37,0-6.17-15.76-2.37-15.76-11.81,0-4,3.38-7.32,9.44-7.32a12.75,12.75,0,0,1,9.44,3.68l-1.85,2.74a9.85,9.85,0,0,0-7.59-3.21c-3.48,0-5.64,1.74-5.64,4,0,5.53,15.76,1.89,15.76,11.8,0,4.27-3.43,7.7-10,7.7A13.65,13.65,0,0,1,732.09,157.87Z"/><path d="M772.15,167.73l2-2.85a9.57,9.57,0,0,0,7.75,3.43c4.8,0,7.7-2.74,7.7-7.38v-3.8a12.43,12.43,0,0,1-9.07,4.22c-5.32,0-8.12-2.58-8.12-8.12V135.79h4V152c0,4.48,2.26,5.85,5.74,5.85A9.9,9.9,0,0,0,789.6,154V135.79h3.95v25.14c0,7.22-5.38,10.65-11.65,10.65A12.75,12.75,0,0,1,772.15,167.73Z"/><path d="M815.11,155.92V126.09h4v29c0,1.89.84,3.27,2.58,3.27a3.6,3.6,0,0,0,2.63-1.11l1.22,3a6.57,6.57,0,0,1-4.75,1.64C817,161.88,815.11,159.72,815.11,155.92Z"/><path d="M847.74,161.25v-3.8a10.72,10.72,0,0,1-8.59,4.43c-6.64,0-11.33-5.06-11.33-13.34s4.69-13.38,11.33-13.38a10.63,10.63,0,0,1,8.59,4.47v-3.84h4v25.46Zm0-7V142.8a9.45,9.45,0,0,0-7.59-4.12c-5.16,0-8.22,4.22-8.22,9.86s3.06,9.81,8.22,9.81A9.42,9.42,0,0,0,847.74,154.29Z"/><path d="M857.44,157.87l2-2.84a11.57,11.57,0,0,0,8.38,3.63c3.9,0,6.06-1.84,6.06-4.37,0-6.17-15.76-2.37-15.76-11.81,0-4,3.37-7.32,9.44-7.32a12.71,12.71,0,0,1,9.43,3.68l-1.84,2.74a9.85,9.85,0,0,0-7.59-3.21c-3.48,0-5.64,1.74-5.64,4,0,5.53,15.76,1.89,15.76,11.8,0,4.27-3.43,7.7-10,7.7A13.68,13.68,0,0,1,857.44,157.87Z"/><path d="M896.51,143.69c0-10.8,8-18.18,18.08-18.18a15.58,15.58,0,0,1,13.33,7l-3.63,2.05a11.85,11.85,0,0,0-9.7-5.11c-7.7,0-13.55,5.85-13.55,14.28S906.89,158,914.59,158a12,12,0,0,0,9.7-5.11l3.68,2a15.8,15.8,0,0,1-13.38,7C904.47,161.88,896.51,154.5,896.51,143.69Z"/><path d="M932.72,129.51a2.7,2.7,0,0,1,2.69-2.68,2.65,2.65,0,0,1,2.64,2.68,2.61,2.61,0,0,1-2.64,2.64A2.66,2.66,0,0,1,932.72,129.51Zm.69,31.74V135.79h4v25.46Z"/><path d="M943.79,148.49c0-7.38,5.27-13.33,12.55-13.33,7.69,0,12.23,6,12.23,13.65v1H948c.31,4.8,3.64,8.8,9.12,8.8a11.09,11.09,0,0,0,7.91-3.27l1.89,2.58a14,14,0,0,1-10.12,4C949.22,161.88,943.79,156.45,943.79,148.49Zm12.49-10.07c-5.42,0-8.11,4.59-8.32,8.43h16.71C964.61,143.11,962.08,138.42,956.28,138.42Z"/><path d="M992.18,161.25V144.59c0-4.53-2.32-5.91-5.74-5.91a9.92,9.92,0,0,0-7.54,4v18.61H975V135.79h3.95v3.69a12.42,12.42,0,0,1,9.12-4.32c5.27,0,8.06,2.68,8.06,8.22v17.87Z"/><path d="M1002.57,148.49c0-7.54,5.11-13.33,12.71-13.33a10.92,10.92,0,0,1,9.33,4.42L1022,142a7.5,7.5,0,0,0-6.48-3.27c-5.38,0-8.81,4.17-8.81,9.81s3.43,9.86,8.81,9.86A7.7,7.7,0,0,0,1022,155l2.64,2.42a10.92,10.92,0,0,1-9.33,4.43C1007.68,161.88,1002.57,156,1002.57,148.49Z"/><path d="M1029.51,129.51a2.7,2.7,0,0,1,2.69-2.68,2.65,2.65,0,0,1,2.63,2.68,2.61,2.61,0,0,1-2.63,2.64A2.65,2.65,0,0,1,1029.51,129.51Zm.68,31.74V135.79h4v25.46Z"/><path d="M1060.5,161.25v-3.8a10.72,10.72,0,0,1-8.59,4.43c-6.64,0-11.33-5.06-11.33-13.34s4.69-13.38,11.33-13.38a10.63,10.63,0,0,1,8.59,4.47v-3.84h4v25.46Zm0-7V142.8a9.45,9.45,0,0,0-7.59-4.12c-5.16,0-8.22,4.22-8.22,9.86s3.06,9.81,8.22,9.81A9.42,9.42,0,0,0,1060.5,154.29Z"/><path d="M1070.2,157.87l2-2.84a11.57,11.57,0,0,0,8.38,3.63c3.9,0,6.06-1.84,6.06-4.37,0-6.17-15.76-2.37-15.76-11.81,0-4,3.37-7.32,9.43-7.32a12.72,12.72,0,0,1,9.44,3.68l-1.85,2.74a9.82,9.82,0,0,0-7.59-3.21c-3.47,0-5.63,1.74-5.63,4,0,5.53,15.76,1.89,15.76,11.8,0,4.27-3.43,7.7-10,7.7A13.68,13.68,0,0,1,1070.2,157.87Z"/></g></g></svg>