<svg width="15" height="15" xmlns="http://www.w3.org/2000/svg"><path d="M7.5 1.357c1.999 0 2.235.007 3.025.043.73.033 1.126.154 1.39.256.349.136.598.297.86.557.262.261.424.51.56.857.103.262.224.656.258 1.382.036.786.043 1.021.043 3.01 0 1.988-.007 2.223-.043 3.009-.034.726-.155 1.12-.258 1.382a2.306 2.306 0 01-.56.857 2.32 2.32 0 01-.86.557c-.264.102-.66.223-1.39.256-.79.036-1.026.043-3.025.043-1.999 0-2.235-.007-3.025-.043-.73-.033-1.126-.154-1.39-.256a2.32 2.32 0 01-.86-.557 2.306 2.306 0 01-.56-.857c-.103-.262-.224-.656-.258-1.382-.036-.786-.043-1.021-.043-3.01 0-1.988.007-2.223.043-3.009.034-.726.155-1.12.258-1.382.136-.348.298-.596.56-.857a2.32 2.32 0 01.86-.557c.264-.102.66-.223 1.39-.256.79-.036 1.026-.043 3.025-.043M7.5 0c2.037 0 2.292.009 3.092.045.799.036 1.344.162 1.82.347.494.19.912.446 1.33.86.416.415.673.831.864 1.322.186.475.312 1.017.349 1.811.036.796.045 1.05.045 3.077 0 2.026-.009 2.28-.045 3.076-.037.794-.163 1.337-.349 1.811-.191.49-.448.907-.865 1.322-.417.415-.835.67-1.328.86-.477.185-1.022.311-1.82.347-.8.037-1.056.045-3.093.045s-2.292-.008-3.092-.045c-.799-.036-1.344-.162-1.82-.347a3.678 3.678 0 01-1.33-.86 3.656 3.656 0 01-.864-1.322c-.186-.474-.312-1.017-.349-1.811C.01 9.742 0 9.488 0 7.462 0 5.435.009 5.18.045 4.385c.037-.794.163-1.336.349-1.811.191-.49.448-.907.865-1.322.417-.414.835-.67 1.328-.86.477-.185 1.022-.31 1.82-.347C5.208.009 5.464 0 7.5 0zm-.34 4.07c-2.072 0-3.75 1.67-3.75 3.73a3.74 3.74 0 003.75 3.732c2.07 0 3.75-1.67 3.75-3.731 0-2.06-1.68-3.731-3.75-3.731zm0 6.105A2.38 2.38 0 014.772 7.8a2.38 2.38 0 012.386-2.374A2.38 2.38 0 019.545 7.8a2.38 2.38 0 01-2.386 2.374zm5.795-5.766a1.02 1.02 0 00-1.023-1.017 1.02 1.02 0 00-1.023 1.017 1.02 1.02 0 001.023 1.018 1.02 1.02 0 001.023-1.018z" fill-rule="evenodd"/></svg>