<?xml version="1.0" encoding="UTF-8"?>
<svg width="15px" height="13px" viewBox="0 0 15 13" version="1.1" xmlns="http://www.w3.org/2000/svg" xmlns:xlink="http://www.w3.org/1999/xlink">
    <title>Download Icon</title>
    <g id="Page-1" stroke="none" stroke-width="1" fill="none" fill-rule="evenodd">
        <g id="05---Desktop---NOVEDADES" transform="translate(-750.000000, -485.000000)" fill="#000000" stroke="#000000" stroke-width="0.5">
            <g id="Novedad-1" transform="translate(50.000000, 231.000000)">
                <g id="leer-más" transform="translate(700.000000, 254.000000)">
                    <g id="Download-Icon" transform="translate(7.646447, 6.560660) rotate(-90.000000) translate(-7.646447, -6.560660) translate(1.646447, -0.439340)">
                        <path d="M6.05528027,0.406146535 L11.3876149,6.12994478 C11.5445297,6.29809822 11.308991,6.55050688 11.1520762,6.38235344 L6.22558024,1.10335617 C6.15907528,1.03209263 6.10581784,1.05511366 6.10581784,1.15390869 L6.10581784,13.1750466 C6.10581784,13.2735823 6.03152487,13.3535534 5.93924168,13.3535534 C5.84729163,13.3535534 5.77266551,13.2735823 5.77266551,13.1750466 L5.77266551,1.15390869 C5.77266551,1.05338093 5.71904957,1.03248053 5.65291097,1.10335617 L0.7267403,6.38235344 C0.569825552,6.55050688 0.333953702,6.29809822 0.491201602,6.12994478 L5.81755959,0.406146535 C5.88246069,0.33640263 5.98959872,0.335643083 6.05528027,0.406146535 Z" id="Path" transform="translate(5.939340, 6.853553) rotate(-180.000000) translate(-5.939340, -6.853553) "></path>
                    </g>
                </g>
            </g>
        </g>
    </g>
</svg>