<svg width="16" height="13" xmlns="http://www.w3.org/2000/svg"><path d="M5.03 13c6.04 0 9.343-5.002 9.343-9.338 0-.14 0-.28-.01-.426A6.677 6.677 0 0016 1.535a6.47 6.47 0 01-1.888.517A3.289 3.289 0 0015.558.235a6.617 6.617 0 01-2.083.798A3.286 3.286 0 007.882 4.03 9.325 9.325 0 011.115.602a3.282 3.282 0 001.014 4.38 3.243 3.243 0 01-1.491-.411v.04a3.287 3.287 0 002.635 3.216 3.29 3.29 0 01-1.48.055A3.288 3.288 0 004.86 10.16 6.61 6.61 0 010 11.525 9.291 9.291 0 005.03 13" fill-rule="evenodd"/></svg>